# xmcd CD database file
#
# Track frame offsets:
#	150
#	19317
#	35855
#	51865
#	63507
#	84757
#	111197
#	132522
#	149370
#
# Disc length: 2247 seconds
#
# Revision: 0
# Processed by: cddbd v1.5.2PL0 Copyright (c) Steve Scherf et al.
# Submitted via: CDex 1.70beta2
#
DISCID=8108c509
DTITLE=O'Donel Levy - Dawn Of A New Day
DYEAR=1974
DGENRE=Jazz
TTITLE0=Dawn Of A New Day
TTITLE1=Baa Waa
TTITLE2=I Wanna Be Where You Are 
TTITLE3=Where Is The Love
TTITLE4=People Make The World Go Round
TTITLE5=Maiden Voyage
TTITLE6=Super Woman
TTITLE7=I Want To Make It With You 
TTITLE8=Goin' On To Detroit 
EXTD=YEAR: 1974
EXTT0=
EXTT1=
EXTT2=
EXTT3=
EXTT4=
EXTT5=
EXTT6=
EXTT7=
EXTT8=
PLAYORDER=
